<svg width="360" height="59" viewBox="0 0 360 59" fill="none" xmlns="http://www.w3.org/2000/svg">
<path d="M32.8 3.2H45.6V53.84H32.88L18.48 32.4C17.36 30.6933 16.4267 29.2533 15.68 28.08C14.9333 26.9067 14.24 25.7333 13.6 24.56C12.96 23.3867 12.24 22 11.44 20.4L11.2 20.72C11.9467 23.28 12.4 25.68 12.56 27.92C12.72 30.1067 12.8 32.24 12.8 34.32V53.84H0V3.2H12.72L27.12 24.64C28.24 26.2933 29.1733 27.7333 29.92 28.96C30.6667 30.1333 31.36 31.3067 32 32.48C32.64 33.6533 33.36 35.04 34.16 36.64L34.4 36.32C33.8667 34.08 33.4667 31.92 33.2 29.84C32.9333 27.7067 32.8 25.6 32.8 23.52V3.2Z" fill="#273552"/>
<path d="M86.3544 52.56C84.861 53.0933 82.781 53.5733 80.1144 54C77.501 54.3733 74.381 54.56 70.7544 54.56C66.1677 54.56 62.2477 53.9733 58.9944 52.8C55.7944 51.5733 53.3677 49.52 51.7144 46.64C50.061 43.7067 49.2344 39.6533 49.2344 34.48C49.2344 27.44 50.8344 22.3467 54.0344 19.2C57.2877 16.0533 62.301 14.48 69.0744 14.48C73.9277 14.48 77.741 15.1733 80.5144 16.56C83.341 17.9467 85.341 19.92 86.5144 22.48C87.741 24.9867 88.3544 27.9733 88.3544 31.44C88.3544 32.4533 88.301 33.5467 88.1944 34.72C88.141 35.8933 88.0077 37.04 87.7944 38.16L87.4744 38.48H61.1544C61.5277 40.8267 62.621 42.3733 64.4344 43.12C66.301 43.8667 69.3144 44.24 73.4744 44.24C76.2477 44.24 78.541 44.1867 80.3544 44.08C82.221 43.92 84.1144 43.7067 86.0344 43.44L86.3544 43.68V52.56ZM77.2344 30.08C77.2344 28.8 77.021 27.7067 76.5944 26.8C76.221 25.84 75.4477 25.12 74.2744 24.64C73.101 24.1067 71.3677 23.84 69.0744 23.84C65.7144 23.84 63.501 24.4267 62.4344 25.6C61.421 26.72 60.9144 28.2133 60.9144 30.08H77.2344Z" fill="#273552"/>
<path d="M116.599 32.8C115.853 36.48 115.079 40.08 114.279 43.6C113.479 47.12 112.626 50.5333 111.719 53.84H97.8794L87.9594 14.88H101.239C101.986 18.88 102.733 23.04 103.479 27.36C104.226 31.68 104.893 35.92 105.479 40.08H105.639C106.439 35.92 107.293 31.68 108.199 27.36C109.159 23.04 110.119 18.88 111.079 14.88H122.279C123.239 18.88 124.173 23.04 125.079 27.36C126.039 31.68 126.919 35.92 127.719 40.08H127.879C128.466 35.92 129.133 31.68 129.879 27.36C130.626 23.04 131.373 18.88 132.119 14.88H145.559L135.639 53.84H121.799C120.946 50.5333 120.066 47.12 119.159 43.6C118.306 40.08 117.506 36.48 116.759 32.8H116.599Z" fill="#273552"/>
<path d="M146.218 42.8C150.378 43.9733 154.991 44.56 160.058 44.56C162.511 44.56 164.351 44.48 165.578 44.32C166.805 44.16 167.631 43.8933 168.058 43.52C168.485 43.1467 168.698 42.64 168.698 42C168.698 41.0933 168.351 40.5333 167.658 40.32C167.018 40.1067 165.711 39.8133 163.738 39.44L157.418 38.24C153.365 37.44 150.431 36.1867 148.618 34.48C146.858 32.72 145.978 30.1067 145.978 26.64C145.978 21.9467 147.365 18.7467 150.138 17.04C152.965 15.3333 157.445 14.48 163.578 14.48C167.258 14.48 170.485 14.6933 173.258 15.12C176.085 15.4933 178.431 15.9733 180.298 16.56L180.138 26.24L179.898 26.48C175.578 25.0933 170.858 24.4 165.738 24.4C163.231 24.4 161.471 24.5867 160.458 24.96C159.498 25.28 159.018 25.9467 159.018 26.96C159.018 27.4933 159.151 27.92 159.418 28.24C159.738 28.56 160.431 28.88 161.498 29.2C162.565 29.4667 164.245 29.8133 166.538 30.24L172.378 31.36C175.631 32.0533 178.031 33.2 179.578 34.8C181.125 36.4 181.898 38.9333 181.898 42.4C181.898 45.44 181.338 47.8667 180.218 49.68C179.098 51.44 177.205 52.6933 174.538 53.44C171.925 54.1867 168.298 54.56 163.658 54.56C160.138 54.56 156.885 54.4 153.898 54.08C150.965 53.7067 148.325 53.28 145.978 52.8V42.96L146.218 42.8Z" fill="#273552"/>
<path d="M198.281 53.84H185.481V14.88H197.641L198.281 22H198.521C199.268 19.6 200.601 17.76 202.521 16.48C204.441 15.1467 207.108 14.48 210.521 14.48C215.161 14.48 218.575 15.7867 220.761 18.4C223.001 21.0133 224.121 25.5467 224.121 32V53.84H211.321L211.241 34.48C211.241 31.4933 210.788 29.36 209.881 28.08C208.975 26.8 207.268 26.16 204.761 26.16C202.415 26.16 200.761 26.7467 199.801 27.92C198.841 29.04 198.335 30.9867 198.281 33.76V53.84Z" fill="#273552"/>
<path d="M244.503 14.48C249.623 14.48 253.756 15.0133 256.903 16.08C260.05 17.1467 262.343 19.12 263.783 22C265.276 24.8267 266.023 28.9333 266.023 34.32V53.84H254.423L254.023 50.16H253.783C252.77 51.4933 251.196 52.56 249.063 53.36C246.93 54.16 244.156 54.56 240.743 54.56C231.516 54.56 226.903 50.24 226.903 41.6C226.903 37.92 228.103 35.04 230.503 32.96C232.956 30.8267 236.796 29.76 242.023 29.76H253.863C253.49 27.52 252.53 26.0267 250.983 25.28C249.436 24.48 246.796 24.08 243.063 24.08C240.716 24.08 238.396 24.2667 236.103 24.64C233.863 24.96 231.89 25.3333 230.183 25.76L229.943 25.6L230.023 16.32C231.09 16 232.45 15.7067 234.103 15.44C235.756 15.12 237.49 14.88 239.303 14.72C241.17 14.56 242.903 14.48 244.503 14.48ZM244.023 45.12C247.33 45.12 249.81 44.72 251.463 43.92C253.116 43.0667 253.97 41.7333 254.023 39.92V37.92H244.983C242.636 37.92 240.983 38.2667 240.023 38.96C239.116 39.6 238.663 40.48 238.663 41.6C238.663 42.9333 239.143 43.8667 240.103 44.4C241.063 44.88 242.37 45.12 244.023 45.12Z" fill="#273552"/>
<path d="M332.8 53.84H320V0H332.8V31.36H332.96L343.04 14.88H357.12V15.2L345.28 33.6V33.92L359.04 53.84H344.32L333.04 35.84L332.8 35.76V53.84Z" fill="#273552"/>
<path d="M293.7 9.56006C294.009 9.56006 294.316 9.56732 294.621 9.57861C294.349 10.3554 294.2 11.1903 294.2 12.0601C294.2 15.7673 296.89 18.844 300.425 19.4497C300.279 20.1301 300.2 20.8359 300.2 21.5601C300.2 27.0829 304.677 31.5601 310.2 31.5601C310.674 31.5601 311.139 31.5241 311.595 31.4604C312.532 34.236 315.048 36.2838 318.075 36.5337C316.835 48.9029 306.396 58.5601 293.7 58.5601C280.169 58.5601 269.2 47.591 269.2 34.0601C269.2 20.5291 280.169 9.56006 293.7 9.56006Z" fill="#E9B04F"/>
<circle cx="291.2" cy="22.5601" r="2" fill="#273552"/>
<circle cx="280.2" cy="28.5601" r="4" fill="#273552"/>
<circle cx="294.2" cy="34.5601" r="2" fill="#273552"/>
<circle cx="284.2" cy="42.5601" r="3" fill="#273552"/>
<circle cx="300.2" cy="46.5601" r="3" fill="#273552"/>
<circle cx="310.2" cy="14.5601" r="3" fill="#273552"/>
<circle cx="315.2" cy="26.5601" r="2" fill="#273552"/>
<circle cx="306.2" cy="22.5601" r="2" fill="#273552"/>
</svg>
