<svg width="40" height="40" viewBox="0 0 40 40" fill="none" xmlns="http://www.w3.org/2000/svg">
<path d="M28.7933 9.37831C29.5183 9.64498 30 10.3366 30 11.11V29.4116C30 30.185 29.5167 30.8766 28.7933 31.1433C27.4204 31.6477 25.9129 31.6477 24.54 31.1433C24.1866 31.0122 23.8816 30.7763 23.666 30.4671C23.4503 30.1579 23.3343 29.7903 23.3333 29.4133V11.1116C23.3333 10.3383 23.8167 9.64664 24.54 9.37831C25.9129 8.8739 27.4204 8.8739 28.7933 9.37831ZM15.46 9.37831C16.185 9.64498 16.6667 10.3366 16.6667 11.11V29.4116C16.6667 30.185 16.1833 30.8766 15.46 31.1433C14.0871 31.6477 12.5796 31.6477 11.2067 31.1433C10.8532 31.0122 10.5483 30.7763 10.3326 30.4671C10.117 30.1579 10.0009 29.7903 10 29.4133V11.1116C10 10.3383 10.4833 9.64664 11.2067 9.37831C12.5796 8.8739 14.0871 8.8739 15.46 9.37831Z" fill="white"/>
</svg>
