<svg width="24" height="24" viewBox="0 0 24 24" fill="none" xmlns="http://www.w3.org/2000/svg">
<path fill-rule="evenodd" clip-rule="evenodd" d="M20.245 14.001C20.6442 13.956 21.1788 14.1975 21.1786 14.6514C21.1781 16.6834 21.6436 18.7024 20.0165 20.2207C18.6592 21.487 16.7977 21.2425 15.1269 21.2422L11.8036 21.2412H7.22649C6.24304 21.2427 5.20152 21.2621 4.22357 21.2256C3.88061 21.1618 3.43567 21.1351 3.31732 20.7285C2.9113 19.3299 4.79233 19.4765 5.59857 19.4785L7.61907 19.4854H15.3476C15.9805 19.4852 17.6497 19.5365 18.1396 19.3633C19.4372 18.9042 19.4642 17.9194 19.4667 16.7822L19.4687 15.377C19.4699 14.5327 19.4254 14.2641 20.245 14.001ZM17.0195 3.26074C17.903 3.87796 18.8145 5.09224 19.6142 5.86426C20.1298 6.36193 21.0692 7.21921 21.2607 7.89258C21.1713 8.09909 21.0705 8.28111 20.9238 8.4502C20.3865 9.06932 19.7781 9.64118 19.207 10.2344C18.6407 10.7953 18.0959 11.4545 17.5068 11.9814C17.193 12.2084 16.8877 12.5916 16.4833 12.3789C15.2326 11.7209 16.3053 10.716 16.9365 10.0801C17.3508 9.66256 17.8227 9.17585 18.2519 8.72656C15.3623 8.80051 12.409 8.60361 9.52044 8.82227C8.3078 8.91414 7.43188 9.424 6.56243 10.2852C5.75505 11.1898 5.2253 12.594 5.04583 13.7998C4.974 14.2828 4.97719 14.8486 4.86321 15.3164C4.62522 15.4695 4.39009 15.5582 4.12786 15.6543C3.72427 15.5279 3.2875 15.4437 3.26556 14.9189C3.1897 13.1043 3.97452 10.7083 5.11224 9.33496C5.9092 8.38468 6.95226 7.68667 8.11907 7.32227C9.27394 6.97362 11.0308 6.97534 12.2382 6.97559L15.7568 6.97754C16.5761 6.97821 17.4339 6.99843 18.248 6.93262C18.0774 6.76699 17.7962 6.50406 17.6503 6.32129C17.0792 5.60532 14.9915 4.17323 16.4013 3.28906C16.5999 3.26456 16.8181 3.26543 17.0195 3.26074Z" fill="#08090A"/>
</svg>
